<mxfile host="app.diagrams.net" modified="2021-08-27T20:44:48.227Z" agent="5.0 (X11; CrOS x86_64 13816.82.0) AppleWebKit/537.36 (KHTML, like Gecko) Chrome/90.0.4430.218 Safari/537.36" etag="EsHrMfrM3dkHl7_r2hcC" version="15.0.2" type="github">
  <diagram id="6aeQ-n7I6sV-tO1x2c7K" name="Page-2">
    <mxGraphModel dx="1320" dy="524" grid="1" gridSize="10" guides="1" tooltips="1" connect="1" arrows="1" fold="1" page="1" pageScale="1" pageWidth="850" pageHeight="1100" math="0" shadow="0">
      <root>
        <mxCell id="YfqVsgHvRy2Kf9zH1WHv-0" />
        <mxCell id="YfqVsgHvRy2Kf9zH1WHv-1" parent="YfqVsgHvRy2Kf9zH1WHv-0" />
        <mxCell id="nVmemQnN_umq9lXoFqTh-0" value="" style="ellipse;whiteSpace=wrap;html=1;sketch=1;" parent="YfqVsgHvRy2Kf9zH1WHv-1" vertex="1">
          <mxGeometry x="40" y="1000" width="120" height="80" as="geometry" />
        </mxCell>
        <mxCell id="nVmemQnN_umq9lXoFqTh-1" value="Start" style="text;html=1;strokeColor=none;fillColor=none;align=center;verticalAlign=middle;whiteSpace=wrap;rounded=0;sketch=1;" parent="YfqVsgHvRy2Kf9zH1WHv-1" vertex="1">
          <mxGeometry x="80" y="1030" width="40" height="20" as="geometry" />
        </mxCell>
        <mxCell id="nVmemQnN_umq9lXoFqTh-2" value="" style="endArrow=classic;html=1;exitX=1;exitY=0.5;exitDx=0;exitDy=0;sketch=1;curved=1;" parent="YfqVsgHvRy2Kf9zH1WHv-1" source="nVmemQnN_umq9lXoFqTh-0" edge="1">
          <mxGeometry width="50" height="50" relative="1" as="geometry">
            <mxPoint x="200" y="980" as="sourcePoint" />
            <mxPoint x="240" y="1040" as="targetPoint" />
          </mxGeometry>
        </mxCell>
        <mxCell id="nVmemQnN_umq9lXoFqTh-4" value="" style="whiteSpace=wrap;html=1;aspect=fixed;sketch=1;" parent="YfqVsgHvRy2Kf9zH1WHv-1" vertex="1">
          <mxGeometry x="250" y="1000" width="80" height="80" as="geometry" />
        </mxCell>
        <mxCell id="nVmemQnN_umq9lXoFqTh-5" value="Go" style="text;html=1;strokeColor=none;fillColor=none;align=center;verticalAlign=middle;whiteSpace=wrap;rounded=0;sketch=1;" parent="YfqVsgHvRy2Kf9zH1WHv-1" vertex="1">
          <mxGeometry x="270" y="1030" width="40" height="20" as="geometry" />
        </mxCell>
        <mxCell id="nVmemQnN_umq9lXoFqTh-7" value="" style="endArrow=classic;html=1;exitX=1;exitY=0.5;exitDx=0;exitDy=0;sketch=1;curved=1;" parent="YfqVsgHvRy2Kf9zH1WHv-1" source="nVmemQnN_umq9lXoFqTh-4" edge="1">
          <mxGeometry width="50" height="50" relative="1" as="geometry">
            <mxPoint x="410" y="990" as="sourcePoint" />
            <mxPoint x="420" y="1040" as="targetPoint" />
          </mxGeometry>
        </mxCell>
        <mxCell id="nVmemQnN_umq9lXoFqTh-8" value="" style="whiteSpace=wrap;html=1;aspect=fixed;sketch=1;" parent="YfqVsgHvRy2Kf9zH1WHv-1" vertex="1">
          <mxGeometry x="425" y="1000" width="80" height="80" as="geometry" />
        </mxCell>
        <mxCell id="nVmemQnN_umq9lXoFqTh-12" value="Turn left" style="text;html=1;strokeColor=none;fillColor=none;align=center;verticalAlign=middle;whiteSpace=wrap;rounded=0;sketch=1;" parent="YfqVsgHvRy2Kf9zH1WHv-1" vertex="1">
          <mxGeometry x="445" y="1030" width="40" height="20" as="geometry" />
        </mxCell>
        <mxCell id="nVmemQnN_umq9lXoFqTh-13" value="" style="endArrow=classic;html=1;exitX=1;exitY=0.5;exitDx=0;exitDy=0;sketch=1;curved=1;" parent="YfqVsgHvRy2Kf9zH1WHv-1" source="nVmemQnN_umq9lXoFqTh-8" edge="1">
          <mxGeometry width="50" height="50" relative="1" as="geometry">
            <mxPoint x="520" y="1040" as="sourcePoint" />
            <mxPoint x="580" y="1040" as="targetPoint" />
          </mxGeometry>
        </mxCell>
        <mxCell id="nVmemQnN_umq9lXoFqTh-14" value="" style="whiteSpace=wrap;html=1;aspect=fixed;sketch=1;" parent="YfqVsgHvRy2Kf9zH1WHv-1" vertex="1">
          <mxGeometry x="590" y="1000" width="80" height="80" as="geometry" />
        </mxCell>
        <mxCell id="nVmemQnN_umq9lXoFqTh-15" value="Go" style="text;html=1;strokeColor=none;fillColor=none;align=center;verticalAlign=middle;whiteSpace=wrap;rounded=0;sketch=1;" parent="YfqVsgHvRy2Kf9zH1WHv-1" vertex="1">
          <mxGeometry x="610" y="1030" width="40" height="20" as="geometry" />
        </mxCell>
        <mxCell id="nVmemQnN_umq9lXoFqTh-16" value="" style="endArrow=classic;html=1;exitX=0.5;exitY=0;exitDx=0;exitDy=0;sketch=1;curved=1;" parent="YfqVsgHvRy2Kf9zH1WHv-1" source="nVmemQnN_umq9lXoFqTh-14" edge="1">
          <mxGeometry width="50" height="50" relative="1" as="geometry">
            <mxPoint x="630" y="910" as="sourcePoint" />
            <mxPoint x="630" y="920" as="targetPoint" />
          </mxGeometry>
        </mxCell>
        <mxCell id="nVmemQnN_umq9lXoFqTh-17" value="" style="whiteSpace=wrap;html=1;aspect=fixed;sketch=1;" parent="YfqVsgHvRy2Kf9zH1WHv-1" vertex="1">
          <mxGeometry x="590" y="830" width="80" height="80" as="geometry" />
        </mxCell>
        <mxCell id="nVmemQnN_umq9lXoFqTh-18" value="Turn right&amp;nbsp;" style="text;html=1;strokeColor=none;fillColor=none;align=center;verticalAlign=middle;whiteSpace=wrap;rounded=0;sketch=1;" parent="YfqVsgHvRy2Kf9zH1WHv-1" vertex="1">
          <mxGeometry x="610" y="860" width="40" height="20" as="geometry" />
        </mxCell>
        <mxCell id="nVmemQnN_umq9lXoFqTh-19" value="" style="endArrow=classic;html=1;exitX=0.5;exitY=0;exitDx=0;exitDy=0;sketch=1;curved=1;" parent="YfqVsgHvRy2Kf9zH1WHv-1" source="nVmemQnN_umq9lXoFqTh-17" edge="1">
          <mxGeometry width="50" height="50" relative="1" as="geometry">
            <mxPoint x="570" y="950" as="sourcePoint" />
            <mxPoint x="630" y="760" as="targetPoint" />
          </mxGeometry>
        </mxCell>
        <mxCell id="nVmemQnN_umq9lXoFqTh-20" value="" style="whiteSpace=wrap;html=1;aspect=fixed;sketch=1;" parent="YfqVsgHvRy2Kf9zH1WHv-1" vertex="1">
          <mxGeometry x="590" y="670" width="80" height="80" as="geometry" />
        </mxCell>
        <mxCell id="nVmemQnN_umq9lXoFqTh-21" value="Go" style="text;html=1;strokeColor=none;fillColor=none;align=center;verticalAlign=middle;whiteSpace=wrap;rounded=0;sketch=1;" parent="YfqVsgHvRy2Kf9zH1WHv-1" vertex="1">
          <mxGeometry x="610" y="700" width="40" height="20" as="geometry" />
        </mxCell>
        <mxCell id="nVmemQnN_umq9lXoFqTh-22" value="" style="endArrow=classic;html=1;exitX=0.5;exitY=0;exitDx=0;exitDy=0;sketch=1;curved=1;" parent="YfqVsgHvRy2Kf9zH1WHv-1" source="nVmemQnN_umq9lXoFqTh-20" edge="1">
          <mxGeometry width="50" height="50" relative="1" as="geometry">
            <mxPoint x="600" y="740" as="sourcePoint" />
            <mxPoint x="630" y="590" as="targetPoint" />
          </mxGeometry>
        </mxCell>
        <mxCell id="nVmemQnN_umq9lXoFqTh-23" value="Turn left" style="whiteSpace=wrap;html=1;aspect=fixed;sketch=1;" parent="YfqVsgHvRy2Kf9zH1WHv-1" vertex="1">
          <mxGeometry x="590" y="500" width="80" height="80" as="geometry" />
        </mxCell>
        <mxCell id="nVmemQnN_umq9lXoFqTh-24" value="" style="endArrow=classic;html=1;exitX=0.5;exitY=0;exitDx=0;exitDy=0;sketch=1;curved=1;" parent="YfqVsgHvRy2Kf9zH1WHv-1" source="nVmemQnN_umq9lXoFqTh-23" edge="1">
          <mxGeometry width="50" height="50" relative="1" as="geometry">
            <mxPoint x="620" y="540" as="sourcePoint" />
            <mxPoint x="630" y="420" as="targetPoint" />
          </mxGeometry>
        </mxCell>
        <mxCell id="nVmemQnN_umq9lXoFqTh-26" value="" style="whiteSpace=wrap;html=1;aspect=fixed;sketch=1;" parent="YfqVsgHvRy2Kf9zH1WHv-1" vertex="1">
          <mxGeometry x="590" y="330" width="80" height="80" as="geometry" />
        </mxCell>
        <mxCell id="nVmemQnN_umq9lXoFqTh-27" value="Go&amp;nbsp;" style="text;html=1;strokeColor=none;fillColor=none;align=center;verticalAlign=middle;whiteSpace=wrap;rounded=0;sketch=1;" parent="YfqVsgHvRy2Kf9zH1WHv-1" vertex="1">
          <mxGeometry x="610" y="360" width="40" height="20" as="geometry" />
        </mxCell>
        <mxCell id="nVmemQnN_umq9lXoFqTh-28" value="" style="endArrow=classic;html=1;exitX=0.5;exitY=0;exitDx=0;exitDy=0;sketch=1;curved=1;" parent="YfqVsgHvRy2Kf9zH1WHv-1" source="nVmemQnN_umq9lXoFqTh-26" edge="1">
          <mxGeometry width="50" height="50" relative="1" as="geometry">
            <mxPoint x="630" y="480" as="sourcePoint" />
            <mxPoint x="630" y="250" as="targetPoint" />
          </mxGeometry>
        </mxCell>
        <mxCell id="nVmemQnN_umq9lXoFqTh-29" value="" style="whiteSpace=wrap;html=1;aspect=fixed;sketch=1;" parent="YfqVsgHvRy2Kf9zH1WHv-1" vertex="1">
          <mxGeometry x="590" y="160" width="80" height="80" as="geometry" />
        </mxCell>
        <mxCell id="nVmemQnN_umq9lXoFqTh-30" value="Stop for 5 seconds" style="text;html=1;strokeColor=none;fillColor=none;align=center;verticalAlign=middle;whiteSpace=wrap;rounded=0;sketch=1;" parent="YfqVsgHvRy2Kf9zH1WHv-1" vertex="1">
          <mxGeometry x="600" y="190" width="60" height="20" as="geometry" />
        </mxCell>
        <mxCell id="nVmemQnN_umq9lXoFqTh-31" value="" style="endArrow=classic;html=1;exitX=0;exitY=0.5;exitDx=0;exitDy=0;sketch=1;curved=1;" parent="YfqVsgHvRy2Kf9zH1WHv-1" source="nVmemQnN_umq9lXoFqTh-29" edge="1">
          <mxGeometry width="50" height="50" relative="1" as="geometry">
            <mxPoint x="500" y="270" as="sourcePoint" />
            <mxPoint x="510" y="200" as="targetPoint" />
          </mxGeometry>
        </mxCell>
        <mxCell id="nVmemQnN_umq9lXoFqTh-33" value="" style="whiteSpace=wrap;html=1;aspect=fixed;sketch=1;" parent="YfqVsgHvRy2Kf9zH1WHv-1" vertex="1">
          <mxGeometry x="425" y="160" width="80" height="80" as="geometry" />
        </mxCell>
        <mxCell id="nVmemQnN_umq9lXoFqTh-35" style="edgeStyle=orthogonalEdgeStyle;rounded=0;orthogonalLoop=1;jettySize=auto;html=1;exitX=0.5;exitY=1;exitDx=0;exitDy=0;sketch=1;curved=1;" parent="YfqVsgHvRy2Kf9zH1WHv-1" source="nVmemQnN_umq9lXoFqTh-33" target="nVmemQnN_umq9lXoFqTh-33" edge="1">
          <mxGeometry relative="1" as="geometry" />
        </mxCell>
        <mxCell id="nVmemQnN_umq9lXoFqTh-36" value="Go&amp;nbsp;" style="text;html=1;strokeColor=none;fillColor=none;align=center;verticalAlign=middle;whiteSpace=wrap;rounded=0;sketch=1;" parent="YfqVsgHvRy2Kf9zH1WHv-1" vertex="1">
          <mxGeometry x="445" y="190" width="40" height="20" as="geometry" />
        </mxCell>
        <mxCell id="nVmemQnN_umq9lXoFqTh-37" value="" style="endArrow=classic;html=1;sketch=1;curved=1;" parent="YfqVsgHvRy2Kf9zH1WHv-1" edge="1">
          <mxGeometry width="50" height="50" relative="1" as="geometry">
            <mxPoint x="420" y="200" as="sourcePoint" />
            <mxPoint x="340" y="200" as="targetPoint" />
          </mxGeometry>
        </mxCell>
        <mxCell id="nVmemQnN_umq9lXoFqTh-38" value="" style="whiteSpace=wrap;html=1;aspect=fixed;sketch=1;" parent="YfqVsgHvRy2Kf9zH1WHv-1" vertex="1">
          <mxGeometry x="250" y="160" width="80" height="80" as="geometry" />
        </mxCell>
        <mxCell id="nVmemQnN_umq9lXoFqTh-39" value="Turn left" style="text;html=1;strokeColor=none;fillColor=none;align=center;verticalAlign=middle;whiteSpace=wrap;rounded=0;sketch=1;" parent="YfqVsgHvRy2Kf9zH1WHv-1" vertex="1">
          <mxGeometry x="270" y="190" width="40" height="20" as="geometry" />
        </mxCell>
        <mxCell id="nVmemQnN_umq9lXoFqTh-40" value="" style="endArrow=classic;html=1;exitX=0;exitY=0.5;exitDx=0;exitDy=0;sketch=1;curved=1;" parent="YfqVsgHvRy2Kf9zH1WHv-1" source="nVmemQnN_umq9lXoFqTh-38" edge="1">
          <mxGeometry width="50" height="50" relative="1" as="geometry">
            <mxPoint x="150" y="210" as="sourcePoint" />
            <mxPoint x="170" y="200" as="targetPoint" />
          </mxGeometry>
        </mxCell>
        <mxCell id="nVmemQnN_umq9lXoFqTh-41" value="" style="whiteSpace=wrap;html=1;aspect=fixed;sketch=1;" parent="YfqVsgHvRy2Kf9zH1WHv-1" vertex="1">
          <mxGeometry x="80" y="160" width="80" height="80" as="geometry" />
        </mxCell>
        <mxCell id="nVmemQnN_umq9lXoFqTh-44" value="Text" style="text;html=1;strokeColor=none;fillColor=none;align=center;verticalAlign=middle;whiteSpace=wrap;rounded=0;sketch=1;" parent="YfqVsgHvRy2Kf9zH1WHv-1" vertex="1">
          <mxGeometry x="100" y="190" width="40" height="20" as="geometry" />
        </mxCell>
      </root>
    </mxGraphModel>
  </diagram>
</mxfile>
